<?xml version="1.0" encoding="utf-8"?>
<!-- Generator: Adobe Illustrator 23.1.0, SVG Export Plug-In . SVG Version: 6.00 Build 0)  -->
<svg version="1.1" id="Layer_1" xmlns="http://www.w3.org/2000/svg" xmlns:xlink="http://www.w3.org/1999/xlink" x="0px" y="0px"
	 viewBox="0 0 1800 730" style="enable-background:new 0 0 1800 730;" xml:space="preserve">
<style type="text/css">
	.st0{fill:none;stroke:#000000;stroke-width:20;stroke-miterlimit:10;}
	.st1{fill:none;stroke:#000000;stroke-miterlimit:10;}
	.st2{fill:#800080;stroke:#FFFFFF;stroke-miterlimit:10;}
	.st3{fill:#444444;stroke:#FFFFFF;stroke-miterlimit:10;}
</style>
<rect x="460.23" y="39.92" class="st0" width="1000" height="1000"/>
<polygon class="st1" points="774.34,163.05 772.92,163.05 772.92,161.76 "/>
<rect x="1202.32" y="83.8" class="st1" width="85.98" height="0.4"/>
<polygon class="st2" points="1403.27,983.8 1257.65,983.72 1236.84,963.23 1166.54,894.03 893.83,625.57 873.72,605.77 
	802.38,535.56 782.47,515.95 782.47,515.94 711.27,445.87 600.58,336.9 600.61,356.16 600.75,445.81 600.8,479.9 657.26,535.48 
	691.74,569.42 748.7,625.49 782.69,658.94 839.83,715.19 873.94,748.77 873.94,748.78 930.95,804.89 964.89,838.3 1021.42,893.95 
	1055.82,927.82 1112.53,983.64 967.41,983.57 965.11,981.3 965.11,983.57 511.43,983.33 511.39,961.99 511.29,893.69 511.17,818.99 
	511.16,804.67 511.01,715.02 510.95,676 550.61,715.04 601.24,764.88 601.3,804.72 601.45,893.73 876.3,893.88 510.73,534.01 
	510.6,445.76 510.51,391.02 510.51,391.01 510.45,356.11 510.32,267.1 510.28,248.01 510.18,177.44 510.06,104.51 675.31,267.18 
	691.3,282.93 765.78,356.25 782.24,372.45 856.9,445.95 948.01,535.64 964.44,551.8 1039.45,625.64 1055.37,641.32 1130.57,715.34 
	1327.55,909.26 "/>
<line class="st1" x1="949.03" y1="946.88" x2="946.85" y2="946.88"/>
<line class="st1" x1="1376.61" y1="84.19" x2="1288.3" y2="84.19"/>
<line class="st1" x1="860.7" y1="868.42" x2="860.69" y2="866.57"/>
<line class="st1" x1="1291.9" y1="633.56" x2="1289.46" y2="631.35"/>
<polygon class="st3" points="1410.06,83.8 1410.06,374.4 1388.94,353.63 1315.49,281.39 1315.45,263.98 1315.27,174.34 
	1061.51,174.34 1133.81,245.44 1152.66,263.98 1224.79,334.91 1243.83,353.63 1315.77,424.38 1334.34,442.65 1410.06,517.11 
	1410.06,659.84 1371.53,621.94 1316.05,567.39 1316.05,567.38 1280.38,532.3 1225.07,477.91 1189.22,442.65 1134.1,388.44 
	1098.7,353.63 1043.76,299.6 1007.54,263.98 952.79,210.12 916.39,174.34 772.3,174.34 770.8,172.86 770.8,174.34 772.3,174.34 
	862.09,262.64 862.09,263.98 863.44,263.98 953.07,352.11 953.07,353.63 954.6,353.63 1044.05,441.59 1044.05,442.65 
	1045.13,442.65 1134.38,530.43 1134.39,532.3 1136.28,532.3 1225.35,619.9 1225.36,621.94 1227.43,621.94 1316.33,709.37 
	1316.33,709.38 1316.34,711.9 1318.9,711.9 1410.06,801.55 1410.06,944.27 1356.1,891.2 1225.64,762.9 1173.78,711.9 
	1134.67,673.43 1044.33,584.58 991.16,532.3 953.35,495.11 900,442.65 862.37,405.63 809.49,353.63 771.08,315.85 718.33,263.98 
	680.1,226.38 627.19,174.34 589.12,136.9 535.59,84.25 1115.03,84.25 1114.57,83.8 1224.29,83.8 1224.29,84.25 1315.1,84.25 
	1315.1,83.8 "/>
</svg>
