<?xml version="1.0" encoding="utf-8"?>
<!-- Generator: Adobe Illustrator 23.1.0, SVG Export Plug-In . SVG Version: 6.00 Build 0)  -->
<svg version="1.1" id="Layer_1" xmlns="http://www.w3.org/2000/svg" xmlns:xlink="http://www.w3.org/1999/xlink" x="0px" y="0px"
	 viewBox="0 0 1550 1100" style="enable-background:new 0 0 1550 1100;" xml:space="preserve">
<style type="text/css">
	.st0{fill:#003049;stroke:#003049;stroke-miterlimit:10;}
	.st1{fill:none;stroke:#000000;stroke-miterlimit:10;}
	.st2{stroke:#000000;stroke-miterlimit:10;}
	.st3{fill:none;stroke:#231F20;stroke-width:10;stroke-miterlimit:10;}
</style>
<polygon class="st0" points="1317.4,142.7 1043,142.7 1121.2,221.8 1141.6,242.4 1219.6,321.3 1240.2,342.1 1318,420.8 
	1338.1,441.2 1420,524 1420,682.8 1378.3,640.6 1318.3,579.9 1318.3,579.9 1279.7,540.9 1219.9,480.4 1181.1,441.2 1121.5,380.9 
	1083.2,342.1 1023.8,282 984.6,242.4 925.4,182.5 886,142.7 730.1,142.7 728.5,141.1 728.5,142.7 730.1,142.7 827.3,240.9 
	827.3,242.4 828.7,242.4 925.7,340.4 925.7,342.1 927.3,342.1 1024.1,440 1024.1,441.2 1025.2,441.2 1121.8,538.8 1121.8,540.9 
	1123.8,540.9 1220.2,638.3 1220.2,640.6 1222.4,640.6 1318.6,737.9 1318.6,737.9 1318.6,740.7 1321.4,740.7 1420,840.4 1420,999.1 
	1361.6,940.1 1220.5,797.4 1164.4,740.7 1122.1,697.9 1024.4,599 966.9,540.9 926,499.5 868.3,441.2 827.6,400 770.4,342.1 
	728.8,300.1 671.8,242.4 630.4,200.6 573.2,142.7 532,101 474.1,42.5 1100.9,42.5 1100.4,42 1195.3,42 1195.3,42.4 1219,42.4 
	1219,42.5 1317.3,42.5 1317.3,42 1420,42 1420,365.2 1397.1,342.1 1317.7,261.8 1317.6,242.4 "/>
<line class="st1" x1="947" y1="961.1" x2="944.7" y2="961.1"/>
<polygon class="st2" points="1419.5,1035.3 1262,1035.2 1239.5,1012.4 1163.4,935.5 868.5,636.8 846.7,614.8 769.5,536.7 748,514.9 
	748,514.9 671,436.9 551.3,315.7 551.3,337.2 551.4,436.9 551.5,474.8 612.6,536.6 649.9,574.4 711.5,636.8 748.2,674 810,736.5 
	846.9,773.9 846.9,773.9 908.6,836.3 945.3,873.5 1006.5,935.4 1043.7,973.1 1105,1035.1 948,1035.1 945.6,1032.5 945.6,1035.1 
	454.8,1034.8 454.8,1011.1 454.7,935.1 454.6,852 454.5,836.1 454.4,736.3 454.3,692.9 497.2,736.4 552,791.8 552,836.1 
	552.2,935.1 849.5,935.3 454.1,535 453.9,436.8 453.8,375.9 453.8,375.9 453.8,337.1 453.6,238.1 453.6,216.9 453.5,138.4 
	453.4,57.2 632.1,238.2 649.4,255.7 730,337.3 747.8,355.3 828.5,437 927.1,536.8 944.8,554.8 1026,636.9 1043.2,654.4 
	1124.5,736.7 1337.6,952.4 "/>
<line class="st1" x1="851.5" y1="873.9" x2="851.5" y2="871.8"/>
<rect x="414.6" y="6.8" class="st3" width="1049.5" height="1061.7"/>
</svg>
