<?xml version="1.0" encoding="utf-8"?>
<!-- Generator: Adobe Illustrator 23.1.0, SVG Export Plug-In . SVG Version: 6.00 Build 0)  -->
<svg version="1.1" id="Layer_1" xmlns="http://www.w3.org/2000/svg" xmlns:xlink="http://www.w3.org/1999/xlink" x="0px" y="0px"
	 viewBox="0 0 1920 1080" style="enable-background:new 0 0 1920 1080;" xml:space="preserve">
<style type="text/css">
	.st0{fill:none;stroke:#FFFFFF;stroke-width:20;stroke-miterlimit:10;}
	.st1{fill:none;stroke:#000000;stroke-miterlimit:10;}
	.st2{fill:#3E7CB1;stroke:#FFFFFF;stroke-miterlimit:10;}
	.st3{fill:#FFFFFF;stroke:#FFFFFF;stroke-miterlimit:10;}
</style>
<path class="st0" d="M771.3,181.1v1.5h1.5L771.3,181.1z M773.4,161.8v1.3h1.4L773.4,161.8z M773.4,161.8v1.3h1.4L773.4,161.8z
	 M771.3,181.1v1.5h1.5L771.3,181.1z M771.3,181.1v1.5h1.5L771.3,181.1z M773.4,161.8v1.3h1.4L773.4,161.8z M773.4,161.8v1.3h1.4
	L773.4,161.8z M771.3,181.1v1.5h1.5L771.3,181.1z M771.3,181.1v1.5h1.5L771.3,181.1z M773.4,161.8v1.3h1.4L773.4,161.8z
	 M773.4,161.8v1.3h1.4L773.4,161.8z M771.3,181.1v1.5h1.5L771.3,181.1z M771.3,181.1v1.5h1.5L771.3,181.1z M773.4,161.8v1.3h1.4
	L773.4,161.8z M773.4,161.8v1.3h1.4L773.4,161.8z M771.3,181.1v1.5h1.5L771.3,181.1z M771.3,181.1v1.5h1.5L771.3,181.1z
	 M773.4,161.8v1.3h1.4L773.4,161.8z M773.4,161.8v1.3h1.4L773.4,161.8z M771.3,181.1v1.5h1.5L771.3,181.1z M771.3,181.1v1.5h1.5
	L771.3,181.1z M773.4,161.8v1.3h1.4L773.4,161.8z M773.4,161.8v1.3h1.4L773.4,161.8z M771.3,182.5h1.5l-1.5-1.5V182.5z M460.7,40
	v1000h1000V40H460.7z M1258.2,983.8l-20.8-20.5l-70.3-69.2L894.3,625.6l-20.1-19.8l-71.3-70.2L783,516v0l-71.2-70.1L601.1,337
	l0,19.3l0.1,89.6l0,34.1l56.5,55.6l34.5,33.9l57,56.1l34,33.5l57.1,56.3l34.1,33.6v0l57,56.1l33.9,33.4l56.5,55.7l34.4,33.9
	l56.7,55.8l-145.1-0.1l-2.3-2.3v2.3l-453.7-0.2l0-21.3l-0.1-68.3l-0.1-74.7l0-14.3l-0.1-89.6l-0.1-39l39.7,39l50.6,49.8l0.1,39.8
	l0.2,89l274.8,0.1L511.2,534.1l-0.1-88.3l-0.1-54.7v0l-0.1-34.9l-0.1-89l0-19.1l-0.1-70.6l-0.1-72.9l165.3,162.7l16,15.8l74.5,73.3
	l16.5,16.2l74.7,73.5l91.1,89.7l16.4,16.2l75,73.8l15.9,15.7l75.2,74l197,193.9l75.7,74.5L1258.2,983.8z M1410.6,382.6l-21.1-20.8
	l-73.4-72.2l0-17.4l-0.2-89.6H1062l72.3,71.1l18.8,18.5l72.1,70.9l19,18.7l71.9,70.8l18.6,18.3l75.7,74.5V668l-38.5-37.9l-55.5-54.5
	v0l-35.7-35.1l-55.3-54.4l-35.9-35.3l-55.1-54.2l-35.4-34.8l-54.9-54l-36.2-35.6l-54.8-53.9l-36.4-35.8H772.8l89.8,88.3v1.3h1.3
	l89.6,88.1v1.5h1.5l89.5,88v1.1h1.1l89.3,87.8l0,1.9h1.9l89.1,87.6l0,2h2.1l88.9,87.4v0l0,2.5h2.6l91.2,89.7v142.7l-54-53.1
	l-130.5-128.3l-51.9-51l-39.1-38.5l-90.3-88.8l-53.2-52.3l-37.8-37.2l-53.3-52.5l-37.6-37l-52.9-52L771.6,324l-52.8-51.9l-38.2-37.6
	l-52.9-52l-38.1-37.4l-53.5-52.6h579.4l-0.5-0.5h109.7v0.5h90.8V92h95V382.6z M773.4,163.1h1.4l-1.4-1.3V163.1z M771.3,182.5h1.5
	l-1.5-1.5V182.5z M771.3,181.1v1.5h1.5L771.3,181.1z M773.4,161.8v1.3h1.4L773.4,161.8z M773.4,161.8v1.3h1.4L773.4,161.8z
	 M771.3,181.1v1.5h1.5L771.3,181.1z M771.3,181.1v1.5h1.5L771.3,181.1z M773.4,161.8v1.3h1.4L773.4,161.8z M773.4,161.8v1.3h1.4
	L773.4,161.8z M771.3,181.1v1.5h1.5L771.3,181.1z M771.3,181.1v1.5h1.5L771.3,181.1z M773.4,161.8v1.3h1.4L773.4,161.8z
	 M773.4,161.8v1.3h1.4L773.4,161.8z M771.3,181.1v1.5h1.5L771.3,181.1z M771.3,181.1v1.5h1.5L771.3,181.1z M773.4,161.8v1.3h1.4
	L773.4,161.8z M773.4,161.8v1.3h1.4L773.4,161.8z M771.3,181.1v1.5h1.5L771.3,181.1z M771.3,181.1v1.5h1.5L771.3,181.1z
	 M773.4,161.8v1.3h1.4L773.4,161.8z M773.4,161.8v1.3h1.4L773.4,161.8z M771.3,181.1v1.5h1.5L771.3,181.1z"/>
<polygon class="st1" points="774.8,163.1 773.4,163.1 773.4,161.8 "/>
<polygon class="st2" points="1403.8,983.8 1258.2,983.8 1237.3,963.3 1167,894.1 894.3,625.6 874.2,605.8 802.9,535.6 783,516 
	783,516 711.8,445.9 601.1,337 601.1,356.2 601.3,445.9 601.3,480 657.8,535.5 692.2,569.5 749.2,625.5 783.2,659 840.3,715.2 
	874.4,748.8 874.4,748.8 931.5,804.9 965.4,838.3 1021.9,894 1056.3,927.9 1113,983.7 967.9,983.6 965.6,981.3 965.6,983.6 
	511.9,983.4 511.9,962 511.8,893.7 511.7,819 511.7,804.7 511.5,715.1 511.5,676 551.1,715.1 601.7,764.9 601.8,804.8 602,893.8 
	876.8,893.9 511.2,534.1 511.1,445.8 511,391.1 511,391.1 511,356.2 510.8,267.2 510.8,248.1 510.7,177.5 510.6,104.6 675.8,267.2 
	691.8,283 766.3,356.3 782.7,372.5 857.4,446 948.5,535.7 964.9,551.8 1039.9,625.7 1055.9,641.4 1131.1,715.4 1328.1,909.3 "/>
<line class="st1" x1="949.5" y1="946.9" x2="947.4" y2="946.9"/>
<line class="st1" x1="861.2" y1="868.5" x2="861.2" y2="866.6"/>
<path class="st3" d="M1316,272.2l0,17.4l73.4,72.2l21.1,20.8V92h-95v0.5h-90.8V92h-109.7l0.5,0.5H536.1l53.5,52.6l38.1,37.4l52.9,52
	l38.2,37.6l52.8,51.9l38.4,37.8l52.9,52l37.6,37l53.3,52.5l37.8,37.2l53.2,52.3l90.3,88.9l39.1,38.5l51.9,51l130.5,128.3l54,53.1
	V809.7l-91.2-89.7h-2.6l0-2.5v0l-88.9-87.4h-2.1l0-2l-89.1-87.6h-1.9l0-1.9l-89.3-87.8h-1.1v-1.1l-89.5-88h-1.5v-1.5l-89.6-88.1
	h-1.3v-1.3l-89.8-88.3h-1.5v-1.5l1.5,1.5h144.1l36.4,35.8l54.8,53.9l36.2,35.6l54.9,54l35.4,34.8l55.1,54.2l35.9,35.3l55.3,54.4
	l35.7,35.1v0l55.5,54.6l38.5,37.9V525.3l-75.7-74.5l-18.6-18.3l-71.9-70.8l-19-18.7l-72.1-70.9l-18.8-18.5l-72.3-71.1h253.8
	L1316,272.2z M773.4,163.1v-1.3l1.4,1.3H773.4z"/>
<polygon class="st3" points="774.8,163.1 773.4,163.1 773.4,161.8 "/>
</svg>
