<?xml version="1.0" encoding="utf-8"?>
<!-- Generator: Adobe Illustrator 24.1.1, SVG Export Plug-In . SVG Version: 6.00 Build 0)  -->
<svg width="40" height="30" version="1.1" id="Layer_1" xmlns="http://www.w3.org/2000/svg" xmlns:xlink="http://www.w3.org/1999/xlink" x="0px" y="0px"
	 viewBox="0 0 512 512" style="enable-background:new 0 0 512 512;" xml:space="preserve">
<style type="text/css">
	.st0{fill:#83BF4F;}
	.st1{fill:#ED4C5C;}
	.st2{fill:#F9F9F9;}
	.st3{fill:#FFFFFF;}
</style>
<g id="XMLID_2_">
	<path id="XMLID_4_" class="st0" d="M256.4,0C144.5,0,50,70.9,14.6,170.9h482.9C462.8,70.9,368.2,0,256.4,0z"/>
	<path id="XMLID_5_" class="st1" d="M256.4,512c111.9,0,206.4-70.9,241.8-170.9H14.6C50,441.1,144.5,512,256.4,512z"/>
	<path id="XMLID_6_" class="st2" d="M14.6,170.9C5.1,197.7,0.4,226.1,0.4,256s5.5,59.1,14.2,85.1h482.9
		c9.5-26.8,14.2-55.1,14.2-85.1s-5.5-59.1-14.2-85.1H14.6z"/>
	<path id="XMLID_7_" class="st3" d="M490.3,360.8c-0.8,1.6-1.6,3.2-2.4,5.5h2.4V360.8"/>
	<path id="XMLID_8_" class="st3" d="M24.8,366.3c-0.8-1.6-1.6-3.2-2.4-5.5v5.5H24.8"/>
	<path id="XMLID_9_" class="st3" d="M31.1,143.4h-3.9c-0.8,0.8-1.6,1.6-1.6,2.4h6.3v-2.4"/>
	<path id="XMLID_10_" class="st3" d="M31.1,162.3v-2.4h-8.7v-5.5h12.6v7.9H54v-19.7h-2.4v16.5h-5.5v-16.5h-2.4v16.5h-5.5v-16.5h-2.4
		v8.7H22.4c-0.8,1.6-1.6,3.9-2.4,6.3v5.5h11"/>
	<path id="XMLID_11_" class="st3" d="M31.1,366.3h-6.3c0,0.8,0.8,1.6,1.6,2.4h4.7L31.1,366.3"/>
	<path id="XMLID_12_" class="st3" d="M22.4,360.8h12.6v7.9H54v-19.7h-2.4v16.5h-5.5v-16.5h-2.4v16.5h-5.5v-16.5h-2.4v8.7H21.7
		C21.7,359.2,22.4,360,22.4,360.8"/>
	<path id="XMLID_13_" class="st3" d="M31.1,349.7H18.5c0,0.8,0.8,1.6,0.8,2.4h11.8V349.7"/>
	<polygon id="XMLID_14_" class="st3" points="99.6,162.3 111.5,162.3 111.5,159.9 102.8,159.9 102.8,154.4 115.4,154.4 115.4,162.3 
		134.3,162.3 134.3,142.6 131.9,142.6 131.9,159.9 126.4,159.9 126.4,142.6 123.3,142.6 123.3,159.9 118.5,159.9 118.5,142.6 
		115.4,142.6 115.4,151.2 99.6,151.2 	"/>
	<polygon id="XMLID_15_" class="st3" points="94.1,162.3 94.1,151.2 83.1,151.2 83.1,154.4 91.8,154.4 91.8,159.9 79.2,159.9 
		79.2,151.2 60.3,151.2 60.3,163.1 62.6,163.1 62.6,154.4 75.2,154.4 75.2,162.3 	"/>
	<rect id="XMLID_16_" x="67.3" y="159.9" class="st3" width="3.9" height="2.4"/>
	<rect id="XMLID_17_" x="59.5" y="143.4" class="st3" width="52" height="2.4"/>
	<polygon id="XMLID_18_" class="st3" points="83.1,360.8 91.8,360.8 91.8,366.3 79.2,366.3 79.2,357.6 60.3,357.6 60.3,369.4 
		62.6,369.4 62.6,360.8 75.2,360.8 75.2,368.6 94.1,368.6 94.1,357.6 83.1,357.6 	"/>
	<rect id="XMLID_19_" x="67.3" y="366.3" class="st3" width="3.9" height="2.4"/>
	<rect id="XMLID_20_" x="59.5" y="349.7" class="st3" width="52" height="2.4"/>
	<polygon id="XMLID_21_" class="st3" points="131.9,366.3 126.4,366.3 126.4,348.9 123.3,348.9 123.3,366.3 118.5,366.3 
		118.5,348.9 115.4,348.9 115.4,357.6 99.6,357.6 99.6,368.6 111.5,368.6 111.5,366.3 102.8,366.3 102.8,360.8 115.4,360.8 
		115.4,368.6 134.3,368.6 134.3,348.9 131.9,348.9 	"/>
	<polygon id="XMLID_22_" class="st3" points="180,162.3 191,162.3 191,159.9 182.4,159.9 182.4,154.4 195,154.4 195,162.3 
		213.9,162.3 213.9,142.6 211.5,142.6 211.5,159.9 206,159.9 206,142.6 203.6,142.6 203.6,159.9 198.1,159.9 198.1,142.6 195,142.6 
		195,151.2 180,151.2 	"/>
	<polygon id="XMLID_23_" class="st3" points="174.5,162.3 174.5,151.2 162.7,151.2 162.7,154.4 171.3,154.4 171.3,159.9 
		157.9,159.9 157.9,151.2 139.8,151.2 139.8,163.1 142.2,163.1 142.2,154.4 155.6,154.4 155.6,162.3 	"/>
	<rect id="XMLID_24_" x="138.2" y="143.4" class="st3" width="52" height="2.4"/>
	<rect id="XMLID_25_" x="146.9" y="159.9" class="st3" width="3.9" height="2.4"/>
	<polygon id="XMLID_26_" class="st3" points="211.5,366.3 206,366.3 206,348.9 203.6,348.9 203.6,366.3 198.1,366.3 198.1,348.9 
		195,348.9 195,357.6 180,357.6 180,368.6 191,368.6 191,366.3 182.4,366.3 182.4,360.8 195,360.8 195,368.6 213.9,368.6 
		213.9,348.9 211.5,348.9 	"/>
	<rect id="XMLID_27_" x="146.9" y="366.3" class="st3" width="3.9" height="2.4"/>
	<rect id="XMLID_28_" x="138.2" y="349.7" class="st3" width="52" height="2.4"/>
	<polygon id="XMLID_29_" class="st3" points="162.7,360.8 171.3,360.8 171.3,366.3 157.9,366.3 157.9,357.6 139.8,357.6 
		139.8,369.4 142.2,369.4 142.2,360.8 155.6,360.8 155.6,368.6 174.5,368.6 174.5,357.6 162.7,357.6 	"/>
	<polygon id="XMLID_30_" class="st3" points="254,162.3 254,151.2 243,151.2 243,154.4 250.9,154.4 250.9,159.9 237.5,159.9 
		237.5,151.2 218.6,151.2 218.6,163.1 222.5,163.1 222.5,154.4 235.1,154.4 235.1,162.3 	"/>
	<rect id="XMLID_31_" x="218.6" y="143.4" class="st3" width="52" height="2.4"/>
	<rect id="XMLID_32_" x="226.5" y="159.9" class="st3" width="3.9" height="2.4"/>
	<polygon id="XMLID_33_" class="st3" points="258.8,162.3 269.8,162.3 269.8,159.9 261.9,159.9 261.9,154.4 275.3,154.4 
		275.3,162.3 294.2,162.3 294.2,142.6 290.3,142.6 290.3,159.9 285.5,159.9 285.5,142.6 283.2,142.6 283.2,159.9 277.7,159.9 
		277.7,142.6 275.3,142.6 275.3,151.2 258.8,151.2 	"/>
	<rect id="XMLID_34_" x="218.6" y="349.7" class="st3" width="52" height="2.4"/>
	<polygon id="XMLID_35_" class="st3" points="243,360.8 250.9,360.8 250.9,366.3 237.5,366.3 237.5,357.6 218.6,357.6 218.6,369.4 
		222.5,369.4 222.5,360.8 235.1,360.8 235.1,368.6 254,368.6 254,357.6 243,357.6 	"/>
	<rect id="XMLID_36_" x="226.5" y="366.3" class="st3" width="3.9" height="2.4"/>
	<polygon id="XMLID_37_" class="st3" points="290.3,366.3 285.5,366.3 285.5,348.9 283.2,348.9 283.2,366.3 277.7,366.3 
		277.7,348.9 275.3,348.9 275.3,357.6 258.8,357.6 258.8,368.6 269.8,368.6 269.8,366.3 261.9,366.3 261.9,360.8 275.3,360.8 
		275.3,368.6 294.2,368.6 294.2,348.9 290.3,348.9 	"/>
	<rect id="XMLID_38_" x="306" y="159.9" class="st3" width="3.9" height="2.4"/>
	<rect id="XMLID_39_" x="298.1" y="143.4" class="st3" width="52" height="2.4"/>
	<polygon id="XMLID_40_" class="st3" points="338.3,162.3 350.1,162.3 350.1,159.9 341.5,159.9 341.5,154.4 354.9,154.4 
		354.9,162.3 373,162.3 373,142.6 370.6,142.6 370.6,159.9 365.9,159.9 365.9,142.6 361.9,142.6 361.9,159.9 357.2,159.9 
		357.2,142.6 354.9,142.6 354.9,151.2 338.3,151.2 	"/>
	<polygon id="XMLID_41_" class="st3" points="333.6,162.3 333.6,151.2 321.8,151.2 321.8,154.4 330.4,154.4 330.4,159.9 
		317.8,159.9 317.8,151.2 298.9,151.2 298.9,163.1 301.3,163.1 301.3,154.4 314.7,154.4 314.7,162.3 	"/>
	<rect id="XMLID_42_" x="298.1" y="349.7" class="st3" width="52" height="2.4"/>
	<polygon id="XMLID_43_" class="st3" points="370.6,366.3 365.9,366.3 365.9,348.9 361.9,348.9 361.9,366.3 357.2,366.3 
		357.2,348.9 354.9,348.9 354.9,357.6 338.3,357.6 338.3,368.6 350.1,368.6 350.1,366.3 341.5,366.3 341.5,360.8 354.9,360.8 
		354.9,368.6 373,368.6 373,348.9 370.6,348.9 	"/>
	<polygon id="XMLID_44_" class="st3" points="321.8,360.8 330.4,360.8 330.4,366.3 317.8,366.3 317.8,357.6 298.9,357.6 
		298.9,369.4 301.3,369.4 301.3,360.8 314.7,360.8 314.7,368.6 333.6,368.6 333.6,357.6 321.8,357.6 	"/>
	<rect id="XMLID_45_" x="306" y="366.3" class="st3" width="3.9" height="2.4"/>
	<polygon id="XMLID_46_" class="st3" points="413.1,162.3 413.1,151.2 401.3,151.2 401.3,154.4 410,154.4 410,159.9 397.4,159.9 
		397.4,151.2 378.5,151.2 378.5,163.1 380.8,163.1 380.8,154.4 394.2,154.4 394.2,162.3 	"/>
	<rect id="XMLID_47_" x="386.4" y="159.9" class="st3" width="3.9" height="2.4"/>
	<rect id="XMLID_48_" x="377.7" y="143.4" class="st3" width="52" height="2.4"/>
	<polygon id="XMLID_49_" class="st3" points="418.7,162.3 429.7,162.3 429.7,159.9 421,159.9 421,154.4 433.6,154.4 433.6,162.3 
		452.5,162.3 452.5,142.6 450.2,142.6 450.2,159.9 444.7,159.9 444.7,142.6 442.3,142.6 442.3,159.9 437.6,159.9 437.6,142.6 
		433.6,142.6 433.6,151.2 418.7,151.2 	"/>
	<rect id="XMLID_50_" x="386.4" y="366.3" class="st3" width="3.9" height="2.4"/>
	<polygon id="XMLID_51_" class="st3" points="401.3,360.8 410,360.8 410,366.3 397.4,366.3 397.4,357.6 378.5,357.6 378.5,369.4 
		380.8,369.4 380.8,360.8 394.2,360.8 394.2,368.6 413.1,368.6 413.1,357.6 401.3,357.6 	"/>
	<rect id="XMLID_52_" x="377.7" y="349.7" class="st3" width="52" height="2.4"/>
	<polygon id="XMLID_53_" class="st3" points="450.2,366.3 444.7,366.3 444.7,348.9 442.3,348.9 442.3,366.3 437.6,366.3 
		437.6,348.9 433.6,348.9 433.6,357.6 418.7,357.6 418.7,368.6 429.7,368.6 429.7,366.3 421,366.3 421,360.8 433.6,360.8 
		433.6,368.6 452.5,368.6 452.5,348.9 450.2,348.9 	"/>
	<path id="XMLID_54_" class="st3" d="M458,145.7H488c-0.8-0.8-0.8-1.6-1.6-2.4h-29.1C458,143.4,458,145.7,458,145.7"/>
	<path id="XMLID_55_" class="st3" d="M481.7,154.4h8.7v5.5h-12.6V152h-18.9v11h2.4v-8.7h12.6v7.9h18.9v-3.9
		c-0.8-1.6-1.6-3.9-2.4-6.3h-8.7V154.4"/>
	<rect id="XMLID_56_" x="465.1" y="159.9" class="st3" width="3.9" height="2.4"/>
	<rect id="XMLID_57_" x="465.1" y="366.3" class="st3" width="3.9" height="2.4"/>
	<path id="XMLID_58_" class="st3" d="M458,349.7v2.4h35.4c0-0.8,0.8-1.6,0.8-2.4H458"/>
	<path id="XMLID_59_" class="st3" d="M481.7,360.8h8.7c0.8-0.8,0.8-1.6,1.6-3.2h-10.2L481.7,360.8"/>
	<path id="XMLID_60_" class="st3" d="M476.2,366.3v-7.9h-18.9v11h3.9v-8.7h12.6v7.9h11.8c0.8-0.8,0.8-1.6,1.6-2.4L476.2,366.3"/>
	<path id="XMLID_61_" class="st1" d="M295,272.5c7.9-22.1,0-47.3-17.3-62.2c19.7,29.1,11.8,67.7-15.8,88.2l1.6-48v-37.8
		c-3.2-1.6-6.3-3.2-7.9-6.3c-1.6,2.4-3.9,4.7-7.9,6.3v37.8l1.6,48c-28.4-20.5-34.7-59.1-15.8-88.2c-18.1,15.8-24.4,40.2-17.3,62.2
		c5.5,15.8,15.8,26.8,28.4,33.1c-7.9,2.4-16.5,3.9-24.4,3.9c10.2,3.2,20.5,3.2,29.9,1.6v1.6l5.5,7.1l5.5-7.1v-1.6
		c9.5,1.6,19.7,1.6,29.9-1.6c-8.7,0-17.3-0.8-24.4-3.9C279.2,298.5,289.5,286.7,295,272.5"/>
	<path id="XMLID_62_" class="st1" d="M313.9,231.6c-7.1-11-18.1-19.7-30.7-22.8c28.4,21.3,33.9,61.4,12.6,89.8
		C319.4,285.1,327.3,255.2,313.9,231.6"/>
	<path id="XMLID_63_" class="st1" d="M228.8,208c-12.6,3.2-23.6,11-30.7,22.8c-13.4,22.8-4.7,52.8,18.1,67
		C195.7,269.4,201.3,229.2,228.8,208"/>
	<path id="XMLID_64_" class="st1" d="M243.8,204.8c3.9,2.4,10.2,1.6,12.6-2.4c2.4,3.9,8.7,4.7,12.6,2.4c3.2-2.4,5.5-7.1,3.2-11
		c-0.8,4.7-4.7,7.9-10.2,7.1c-2.4-0.8-3.9-1.6-6.3-3.9c-0.8,2.4-3.2,3.2-6.3,3.9c-5.5,0.8-9.5-2.4-10.2-7.1
		C238.3,197.7,239.9,202.4,243.8,204.8"/>
</g>
</svg>
